<mxfile host="app.diagrams.net" agent="Mozilla/5.0 (Windows NT 10.0; Win64; x64) AppleWebKit/537.36 (KHTML, like Gecko) Chrome/131.0.0.0 Safari/537.36 Edg/131.0.0.0" version="26.0.5">
  <diagram name="Page-1" id="xrGbgxdM71WrMlbxLxBi">
    <mxGraphModel dx="712" dy="314" grid="1" gridSize="10" guides="1" tooltips="1" connect="1" arrows="1" fold="1" page="1" pageScale="1" pageWidth="827" pageHeight="1169" math="0" shadow="0">
      <root>
        <mxCell id="0" />
        <mxCell id="1" parent="0" />
        <mxCell id="4Zif2yFagEE3A4cHk3hG-1" value="" style="rounded=0;whiteSpace=wrap;html=1;" vertex="1" parent="1">
          <mxGeometry x="80" y="320" width="180" height="100" as="geometry" />
        </mxCell>
        <mxCell id="4Zif2yFagEE3A4cHk3hG-2" value="Dokumentasjon" style="text;html=1;align=center;verticalAlign=middle;resizable=0;points=[];autosize=1;strokeColor=none;fillColor=none;" vertex="1" parent="1">
          <mxGeometry x="70" y="290" width="110" height="30" as="geometry" />
        </mxCell>
        <mxCell id="4Zif2yFagEE3A4cHk3hG-3" value="" style="shape=image;verticalLabelPosition=bottom;labelBackgroundColor=default;verticalAlign=top;aspect=fixed;imageAspect=0;image=https://www.digitale-lehre.hu-berlin.de/de/lehr-und-lernlandschaft/bilder/overleaf.png/@@images/a8699e22-ff62-4d24-9508-01227975177f.png;" vertex="1" parent="1">
          <mxGeometry x="80" y="320" width="120" height="39.6" as="geometry" />
        </mxCell>
        <mxCell id="4Zif2yFagEE3A4cHk3hG-4" value="" style="rounded=0;whiteSpace=wrap;html=1;" vertex="1" parent="1">
          <mxGeometry x="380" y="270" width="290" height="160" as="geometry" />
        </mxCell>
        <mxCell id="4Zif2yFagEE3A4cHk3hG-5" value="SprÃ¥k/Rammeverk" style="text;html=1;align=center;verticalAlign=middle;resizable=0;points=[];autosize=1;strokeColor=none;fillColor=none;" vertex="1" parent="1">
          <mxGeometry x="370" y="240" width="120" height="30" as="geometry" />
        </mxCell>
        <mxCell id="4Zif2yFagEE3A4cHk3hG-6" value="" style="shape=image;verticalLabelPosition=bottom;labelBackgroundColor=default;verticalAlign=top;aspect=fixed;imageAspect=0;image=https://download.logo.wine/logo/Swift_(programming_language)/Swift_(programming_language)-Logo.wine.png;" vertex="1" parent="1">
          <mxGeometry x="380" y="250" width="150.6" height="100.4" as="geometry" />
        </mxCell>
        <mxCell id="4Zif2yFagEE3A4cHk3hG-7" value="" style="shape=image;verticalLabelPosition=bottom;labelBackgroundColor=default;verticalAlign=top;aspect=fixed;imageAspect=0;image=https://seeklogo.com/images/K/kotlin-logo-EE46F1FE44-seeklogo.com.png;clipPath=inset(35.67% 0.67% 35% 0.67%);" vertex="1" parent="1">
          <mxGeometry x="390" y="360" width="201.82" height="60" as="geometry" />
        </mxCell>
        <mxCell id="4Zif2yFagEE3A4cHk3hG-8" value="" style="shape=image;verticalLabelPosition=bottom;labelBackgroundColor=default;verticalAlign=top;aspect=fixed;imageAspect=0;image=https://logos-world.net/wp-content/uploads/2022/01/NET-Framework-Logo-2010.png;" vertex="1" parent="1">
          <mxGeometry x="530.6" y="274.34999999999997" width="135.2" height="76.05" as="geometry" />
        </mxCell>
      </root>
    </mxGraphModel>
  </diagram>
</mxfile>
